<mxfile host="www.draw.io" modified="2020-01-20T09:48:30.174Z" agent="Mozilla/5.0 (Windows NT 10.0; Win64; x64) AppleWebKit/537.36 (KHTML, like Gecko) Chrome/79.0.3945.117 Safari/537.36" etag="56qN0BDMfU-5YIT1QLL7" version="12.5.5" type="github">
  <diagram id="C5RBs43oDa-KdzZeNtuy" name="Page-1">
    <mxGraphModel dx="1320" dy="516" grid="1" gridSize="10" guides="1" tooltips="1" connect="1" arrows="1" fold="1" page="1" pageScale="1" pageWidth="827" pageHeight="1169" math="0" shadow="0">
      <root>
        <mxCell id="WIyWlLk6GJQsqaUBKTNV-0"/>
        <mxCell id="WIyWlLk6GJQsqaUBKTNV-1" parent="WIyWlLk6GJQsqaUBKTNV-0"/>
        <mxCell id="DnD7M6hQlHzNACPniD5b-13" value="" style="edgeStyle=orthogonalEdgeStyle;rounded=0;orthogonalLoop=1;jettySize=auto;html=1;strokeColor=#000000;fontFamily=Helvetica;align=center;" edge="1" parent="WIyWlLk6GJQsqaUBKTNV-1" source="DnD7M6hQlHzNACPniD5b-1">
          <mxGeometry relative="1" as="geometry">
            <mxPoint x="510" y="466" as="targetPoint"/>
          </mxGeometry>
        </mxCell>
        <mxCell id="DnD7M6hQlHzNACPniD5b-22" style="edgeStyle=orthogonalEdgeStyle;rounded=0;orthogonalLoop=1;jettySize=auto;html=1;exitX=0.5;exitY=1;exitDx=0;exitDy=0;entryX=0.5;entryY=0;entryDx=0;entryDy=0;strokeColor=#000000;fontFamily=Helvetica;align=center;" edge="1" parent="WIyWlLk6GJQsqaUBKTNV-1" source="DnD7M6hQlHzNACPniD5b-1" target="DnD7M6hQlHzNACPniD5b-21">
          <mxGeometry relative="1" as="geometry"/>
        </mxCell>
        <mxCell id="DnD7M6hQlHzNACPniD5b-1" value="IF a &amp;gt; 4" style="rhombus;whiteSpace=wrap;html=1;fontFamily=Helvetica;rotation=0;strokeWidth=2;" vertex="1" parent="WIyWlLk6GJQsqaUBKTNV-1">
          <mxGeometry x="345" y="422.5" width="90" height="87.5" as="geometry"/>
        </mxCell>
        <mxCell id="DnD7M6hQlHzNACPniD5b-8" style="edgeStyle=orthogonalEdgeStyle;rounded=0;orthogonalLoop=1;jettySize=auto;html=1;strokeColor=#000000;fontFamily=Helvetica;align=center;" edge="1" parent="WIyWlLk6GJQsqaUBKTNV-1" target="DnD7M6hQlHzNACPniD5b-1">
          <mxGeometry relative="1" as="geometry">
            <mxPoint x="390" y="370" as="sourcePoint"/>
          </mxGeometry>
        </mxCell>
        <mxCell id="DnD7M6hQlHzNACPniD5b-16" value="&lt;span style=&quot;white-space: normal&quot;&gt;Dame un nÃºmero entero (a):&lt;/span&gt;" style="rounded=1;whiteSpace=wrap;html=1;strokeColor=#000000;fontFamily=Helvetica;strokeWidth=2;" vertex="1" parent="WIyWlLk6GJQsqaUBKTNV-1">
          <mxGeometry x="300" y="310" width="180" height="60" as="geometry"/>
        </mxCell>
        <mxCell id="DnD7M6hQlHzNACPniD5b-17" value="El numero es mayor de 4" style="rounded=1;whiteSpace=wrap;html=1;strokeColor=#000000;strokeWidth=2;fontFamily=Helvetica;" vertex="1" parent="WIyWlLk6GJQsqaUBKTNV-1">
          <mxGeometry x="510" y="434.38" width="191.25" height="63.75" as="geometry"/>
        </mxCell>
        <mxCell id="DnD7M6hQlHzNACPniD5b-19" value="SI" style="text;html=1;align=center;verticalAlign=middle;resizable=0;points=[];autosize=1;fontFamily=Helvetica;" vertex="1" parent="WIyWlLk6GJQsqaUBKTNV-1">
          <mxGeometry x="450" y="436.25" width="30" height="20" as="geometry"/>
        </mxCell>
        <mxCell id="DnD7M6hQlHzNACPniD5b-21" value="" style="rounded=1;whiteSpace=wrap;html=1;strokeColor=#000000;strokeWidth=2;fontFamily=Helvetica;" vertex="1" parent="WIyWlLk6GJQsqaUBKTNV-1">
          <mxGeometry x="290" y="600" width="200" height="60" as="geometry"/>
        </mxCell>
        <mxCell id="DnD7M6hQlHzNACPniD5b-23" value="NO" style="text;html=1;align=center;verticalAlign=middle;resizable=0;points=[];autosize=1;fontFamily=Helvetica;" vertex="1" parent="WIyWlLk6GJQsqaUBKTNV-1">
          <mxGeometry x="390" y="549" width="30" height="20" as="geometry"/>
        </mxCell>
      </root>
    </mxGraphModel>
  </diagram>
</mxfile>
